# xmcd
#
# Track frame offsets: 
#        150
#        17077
#        31670
#        43604
#        55553
#        72960
#        90587
#        109146
#        122031
#        133147
#        145603
#        157725
#        171203
#        185882
#        197385
#        208262
#        217359
#        225131
#        234878
#        246826
#
# Disc length: 3451 seconds
#
# Revision: 0
# Processed by: cddbd v1.5.2PL0 Copyright (c) Steve Scherf et al.
# Submitted via: ExactAudioCopy v0.99pb5
#
DISCID=0e0d7914
DTITLE=Tom Houston Orchestra - Tuxedo Country
DYEAR=2009
DGENRE=Instrumental
TTITLE0=Crazy
TTITLE1=For The Good Times
TTITLE2=Faded Love
TTITLE3=Stand By Your Man
TTITLE4=Help Me Make Ir Through The Night
TTITLE5=In The Mood
TTITLE6=I Can't Stop Loving You
TTITLE7=Cold, Cold Heart
TTITLE8=Four In The Morning
TTITLE9=I Fall To Pieces
TTITLE10=Don't It Make My Brown Eyes Blue
TTITLE11=San Antonio Rose
TTITLE12=Drinking Champagne
TTITLE13=Waltz Across Texas
TTITLE14=Jambalaya
TTITLE15=Tennessee Waltz
TTITLE16=Cotton-Eyed Joe
TTITLE17=Hey, Good Lookin'
TTITLE18=Could I Have This Dance?
TTITLE19=You Are My Sunshine
EXTD=
EXTT0=
EXTT1=
EXTT2=
EXTT3=
EXTT4=
EXTT5=
EXTT6=
EXTT7=
EXTT8=
EXTT9=
EXTT10=
EXTT11=
EXTT12=
EXTT13=
EXTT14=
EXTT15=
EXTT16=
EXTT17=
EXTT18=
EXTT19=
PLAYORDER=
